<mxfile host="65bd71144e">
    <diagram id="6cLmwIDixXKqilOefV58" name="Page-1">
        <mxGraphModel dx="502" dy="450" grid="0" gridSize="10" guides="1" tooltips="1" connect="1" arrows="1" fold="1" page="1" pageScale="1" pageWidth="850" pageHeight="1100" math="0" shadow="0">
            <root>
                <mxCell id="0"/>
                <mxCell id="1" parent="0"/>
                <mxCell id="24" value="" style="endArrow=none;html=1;strokeColor=light-dark(#000000,#FFFF00);" edge="1" parent="1">
                    <mxGeometry width="50" height="50" relative="1" as="geometry">
                        <mxPoint x="165" y="285" as="sourcePoint"/>
                        <mxPoint x="200" y="300" as="targetPoint"/>
                    </mxGeometry>
                </mxCell>
                <mxCell id="25" value="" style="endArrow=none;html=1;strokeColor=light-dark(#000000,#FFFF00);" edge="1" parent="1">
                    <mxGeometry width="50" height="50" relative="1" as="geometry">
                        <mxPoint x="200" y="300" as="sourcePoint"/>
                        <mxPoint x="250" y="320" as="targetPoint"/>
                    </mxGeometry>
                </mxCell>
                <mxCell id="26" value="" style="endArrow=none;html=1;strokeColor=light-dark(#000000,#FFFF00);" edge="1" parent="1">
                    <mxGeometry width="50" height="50" relative="1" as="geometry">
                        <mxPoint x="250" y="320" as="sourcePoint"/>
                        <mxPoint x="300" y="320" as="targetPoint"/>
                    </mxGeometry>
                </mxCell>
                <mxCell id="27" value="" style="endArrow=none;html=1;strokeColor=light-dark(#000000,#FFFF00);" edge="1" parent="1">
                    <mxGeometry width="50" height="50" relative="1" as="geometry">
                        <mxPoint x="300" y="319.8" as="sourcePoint"/>
                        <mxPoint x="350" y="360" as="targetPoint"/>
                    </mxGeometry>
                </mxCell>
                <mxCell id="28" value="" style="endArrow=none;html=1;strokeColor=light-dark(#000000,#FFFF00);" edge="1" parent="1">
                    <mxGeometry width="50" height="50" relative="1" as="geometry">
                        <mxPoint x="350" y="360" as="sourcePoint"/>
                        <mxPoint x="410" y="260" as="targetPoint"/>
                    </mxGeometry>
                </mxCell>
                <mxCell id="29" value="" style="endArrow=none;html=1;strokeColor=light-dark(#000000,#FFFF00);" edge="1" parent="1">
                    <mxGeometry width="50" height="50" relative="1" as="geometry">
                        <mxPoint x="410" y="260" as="sourcePoint"/>
                        <mxPoint x="425" y="215" as="targetPoint"/>
                    </mxGeometry>
                </mxCell>
                <mxCell id="3" value="" style="endArrow=none;html=1;" edge="1" parent="1">
                    <mxGeometry width="50" height="50" relative="1" as="geometry">
                        <mxPoint x="160" y="320" as="sourcePoint"/>
                        <mxPoint x="120" y="240" as="targetPoint"/>
                    </mxGeometry>
                </mxCell>
                <mxCell id="4" value="" style="endArrow=none;html=1;" edge="1" parent="1">
                    <mxGeometry width="50" height="50" relative="1" as="geometry">
                        <mxPoint x="240" y="280" as="sourcePoint"/>
                        <mxPoint x="120" y="240" as="targetPoint"/>
                    </mxGeometry>
                </mxCell>
                <mxCell id="5" value="" style="endArrow=none;html=1;" edge="1" parent="1">
                    <mxGeometry width="50" height="50" relative="1" as="geometry">
                        <mxPoint x="240" y="280" as="sourcePoint"/>
                        <mxPoint x="160" y="320" as="targetPoint"/>
                    </mxGeometry>
                </mxCell>
                <mxCell id="6" value="" style="endArrow=none;html=1;" edge="1" parent="1">
                    <mxGeometry width="50" height="50" relative="1" as="geometry">
                        <mxPoint x="240" y="280" as="sourcePoint"/>
                        <mxPoint x="260" y="360" as="targetPoint"/>
                    </mxGeometry>
                </mxCell>
                <mxCell id="7" value="" style="endArrow=none;html=1;" edge="1" parent="1">
                    <mxGeometry width="50" height="50" relative="1" as="geometry">
                        <mxPoint x="260" y="360" as="sourcePoint"/>
                        <mxPoint x="160" y="320" as="targetPoint"/>
                    </mxGeometry>
                </mxCell>
                <mxCell id="8" value="" style="endArrow=none;html=1;" edge="1" parent="1">
                    <mxGeometry width="50" height="50" relative="1" as="geometry">
                        <mxPoint x="340" y="280" as="sourcePoint"/>
                        <mxPoint x="240" y="280" as="targetPoint"/>
                    </mxGeometry>
                </mxCell>
                <mxCell id="9" value="" style="endArrow=none;html=1;" edge="1" parent="1">
                    <mxGeometry width="50" height="50" relative="1" as="geometry">
                        <mxPoint x="340" y="280" as="sourcePoint"/>
                        <mxPoint x="260" y="360" as="targetPoint"/>
                    </mxGeometry>
                </mxCell>
                <mxCell id="10" value="" style="endArrow=none;html=1;" edge="1" parent="1">
                    <mxGeometry width="50" height="50" relative="1" as="geometry">
                        <mxPoint x="360" y="440" as="sourcePoint"/>
                        <mxPoint x="260" y="360" as="targetPoint"/>
                    </mxGeometry>
                </mxCell>
                <mxCell id="11" value="" style="endArrow=none;html=1;" edge="1" parent="1">
                    <mxGeometry width="50" height="50" relative="1" as="geometry">
                        <mxPoint x="360" y="440" as="sourcePoint"/>
                        <mxPoint x="340" y="280" as="targetPoint"/>
                    </mxGeometry>
                </mxCell>
                <mxCell id="12" value="" style="endArrow=none;html=1;" edge="1" parent="1">
                    <mxGeometry width="50" height="50" relative="1" as="geometry">
                        <mxPoint x="480" y="240" as="sourcePoint"/>
                        <mxPoint x="340" y="280" as="targetPoint"/>
                    </mxGeometry>
                </mxCell>
                <mxCell id="13" value="" style="endArrow=none;html=1;" edge="1" parent="1">
                    <mxGeometry width="50" height="50" relative="1" as="geometry">
                        <mxPoint x="480" y="240" as="sourcePoint"/>
                        <mxPoint x="360" y="440" as="targetPoint"/>
                    </mxGeometry>
                </mxCell>
                <mxCell id="14" value="" style="endArrow=none;html=1;" edge="1" parent="1">
                    <mxGeometry width="50" height="50" relative="1" as="geometry">
                        <mxPoint x="440" y="120" as="sourcePoint"/>
                        <mxPoint x="340" y="280" as="targetPoint"/>
                    </mxGeometry>
                </mxCell>
                <mxCell id="15" value="" style="endArrow=none;html=1;" edge="1" parent="1">
                    <mxGeometry width="50" height="50" relative="1" as="geometry">
                        <mxPoint x="480" y="240" as="sourcePoint"/>
                        <mxPoint x="440" y="120" as="targetPoint"/>
                    </mxGeometry>
                </mxCell>
                <mxCell id="16" value="" style="ellipse;whiteSpace=wrap;html=1;aspect=fixed;fillColor=light-dark(#FFFFFF,#FF0000);" vertex="1" parent="1">
                    <mxGeometry x="160" y="280" width="10" height="10" as="geometry"/>
                </mxCell>
                <mxCell id="18" value="" style="ellipse;whiteSpace=wrap;html=1;aspect=fixed;fillColor=light-dark(#FFFFFF,#FF0000);" vertex="1" parent="1">
                    <mxGeometry x="195" y="295" width="10" height="10" as="geometry"/>
                </mxCell>
                <mxCell id="19" value="" style="ellipse;whiteSpace=wrap;html=1;aspect=fixed;fillColor=light-dark(#FFFFFF,#FF0000);" vertex="1" parent="1">
                    <mxGeometry x="245" y="315" width="10" height="10" as="geometry"/>
                </mxCell>
                <mxCell id="20" value="" style="ellipse;whiteSpace=wrap;html=1;aspect=fixed;fillColor=light-dark(#FFFFFF,#FF0000);" vertex="1" parent="1">
                    <mxGeometry x="295" y="315" width="10" height="10" as="geometry"/>
                </mxCell>
                <mxCell id="21" value="" style="ellipse;whiteSpace=wrap;html=1;aspect=fixed;fillColor=light-dark(#FFFFFF,#FF0000);" vertex="1" parent="1">
                    <mxGeometry x="345" y="355" width="10" height="10" as="geometry"/>
                </mxCell>
                <mxCell id="22" value="" style="ellipse;whiteSpace=wrap;html=1;aspect=fixed;fillColor=light-dark(#FFFFFF,#FF0000);" vertex="1" parent="1">
                    <mxGeometry x="405" y="255" width="10" height="10" as="geometry"/>
                </mxCell>
                <mxCell id="23" value="" style="ellipse;whiteSpace=wrap;html=1;aspect=fixed;fillColor=light-dark(#FFFFFF,#FF0000);" vertex="1" parent="1">
                    <mxGeometry x="420" y="210" width="10" height="10" as="geometry"/>
                </mxCell>
                <mxCell id="30" value="A" style="text;html=1;align=center;verticalAlign=middle;resizable=0;points=[];autosize=1;strokeColor=none;fillColor=none;" vertex="1" parent="1">
                    <mxGeometry x="141" y="262" width="26" height="26" as="geometry"/>
                </mxCell>
                <mxCell id="31" value="B&lt;span style=&quot;font-family: monospace; font-size: 0px; text-align: start;&quot;&gt;%3CmxGraphModel%3E%3Croot%3E%3CmxCell%20id%3D%220%22%2F%3E%3CmxCell%20id%3D%221%22%20parent%3D%220%22%2F%3E%3CmxCell%20id%3D%222%22%20value%3D%22A%22%20style%3D%22text%3Bhtml%3D1%3Balign%3Dcenter%3BverticalAlign%3Dmiddle%3Bresizable%3D0%3Bpoints%3D%5B%5D%3Bautosize%3D1%3BstrokeColor%3Dnone%3BfillColor%3Dnone%3B%22%20vertex%3D%221%22%20parent%3D%221%22%3E%3CmxGeometry%20x%3D%22141%22%20y%3D%22262%22%20width%3D%2226%22%20height%3D%2226%22%20as%3D%22geometry%22%2F%3E%3C%2FmxCell%3E%3C%2Froot%3E%3C%2FmxGraphModel%3E&lt;/span&gt;&lt;span style=&quot;font-family: monospace; font-size: 0px; text-align: start;&quot;&gt;%3CmxGraphModel%3E%3Croot%3E%3CmxCell%20id%3D%220%22%2F%3E%3CmxCell%20id%3D%221%22%20parent%3D%220%22%2F%3E%3CmxCell%20id%3D%222%22%20value%3D%22A%22%20style%3D%22text%3Bhtml%3D1%3Balign%3Dcenter%3BverticalAlign%3Dmiddle%3Bresizable%3D0%3Bpoints%3D%5B%5D%3Bautosize%3D1%3BstrokeColor%3Dnone%3BfillColor%3Dnone%3B%22%20vertex%3D%221%22%20parent%3D%221%22%3E%3CmxGeometry%20x%3D%22141%22%20y%3D%22262%22%20width%3D%2226%22%20height%3D%2226%22%20as%3D%22geometry%22%2F%3E%3C%2FmxCell%3E%3C%2Froot%3E%3C%2FmxGraphModel%3E&lt;/span&gt;" style="text;html=1;align=center;verticalAlign=middle;resizable=0;points=[];autosize=1;strokeColor=none;fillColor=none;" vertex="1" parent="1">
                    <mxGeometry x="187" y="302" width="26" height="26" as="geometry"/>
                </mxCell>
                <mxCell id="32" value="C" style="text;html=1;align=center;verticalAlign=middle;resizable=0;points=[];autosize=1;strokeColor=none;fillColor=none;" vertex="1" parent="1">
                    <mxGeometry x="229" y="318" width="27" height="26" as="geometry"/>
                </mxCell>
                <mxCell id="33" value="D" style="text;html=1;align=center;verticalAlign=middle;resizable=0;points=[];autosize=1;strokeColor=none;fillColor=none;" vertex="1" parent="1">
                    <mxGeometry x="280" y="292" width="27" height="26" as="geometry"/>
                </mxCell>
                <mxCell id="34" value="E" style="text;html=1;align=center;verticalAlign=middle;resizable=0;points=[];autosize=1;strokeColor=none;fillColor=none;" vertex="1" parent="1">
                    <mxGeometry x="325" y="353" width="26" height="26" as="geometry"/>
                </mxCell>
                <mxCell id="35" value="F" style="text;html=1;align=center;verticalAlign=middle;resizable=0;points=[];autosize=1;strokeColor=none;fillColor=none;" vertex="1" parent="1">
                    <mxGeometry x="402" y="260" width="25" height="26" as="geometry"/>
                </mxCell>
                <mxCell id="36" value="G" style="text;html=1;align=center;verticalAlign=middle;resizable=0;points=[];autosize=1;strokeColor=none;fillColor=none;" vertex="1" parent="1">
                    <mxGeometry x="419" y="188" width="27" height="26" as="geometry"/>
                </mxCell>
            </root>
        </mxGraphModel>
    </diagram>
</mxfile>